<?xml version="1.0" encoding="utf-8"?>
<!-- Generator: Adobe Illustrator 16.0.0, SVG Export Plug-In . SVG Version: 6.00 Build 0)  -->
<!DOCTYPE svg PUBLIC "-//W3C//DTD SVG 1.1//EN" "http://www.w3.org/Graphics/SVG/1.1/DTD/svg11.dtd">
<svg version="1.1" id="Calque_1" xmlns="http://www.w3.org/2000/svg" xmlns:xlink="http://www.w3.org/1999/xlink" x="0px" y="0px"
	 width="214.1px" height="85.65px" viewBox="0 0 214.1 85.65" enable-background="new 0 0 214.1 85.65" xml:space="preserve">
<g>
	<path fill="#FFFFFF" d="M172.563,75.027c0,0.569,0.615,0.626,0.879,0.626c0.413,0,0.765-0.166,0.999-0.49
		c0.194-0.257,0.284-0.587,0.3-1.063h-0.565C173.086,74.101,172.563,74.4,172.563,75.027z"/>
	<path fill="#FFFFFF" d="M65.47,75.027c0,0.546,0.551,0.626,0.877,0.626c0.415,0,0.761-0.166,0.995-0.49
		c0.197-0.257,0.289-0.587,0.305-1.063H67.08C65.999,74.101,65.47,74.4,65.47,75.027z"/>
	<path fill="#FFFFFF" d="M109.981,71.915c-0.701,0-1.157,0.432-1.254,1.196h2.399C111.076,72.628,110.854,71.915,109.981,71.915z"/>
	<path fill="#FFFFFF" d="M38.438,70.095h-0.801v5.279h0.801c1.669,0,2.538-1.328,2.538-2.642
		C40.975,71.417,40.099,70.095,38.438,70.095z"/>
	<path fill="#FFFFFF" d="M140.127,71.915c-0.705,0-1.157,0.432-1.255,1.196h2.4C141.218,72.628,140.999,71.915,140.127,71.915z"/>
	<path fill="#FFFFFF" d="M57.924,71.985c-1.01,0-1.276,1.16-1.276,1.779c0,0.842,0.332,1.824,1.253,1.824
		c1.142,0,1.202-1.512,1.202-1.824C59.103,73.465,59.042,71.985,57.924,71.985z"/>
	<path fill="#FFFFFF" d="M88.87,71.915c-0.703,0-1.157,0.432-1.254,1.196h2.401C89.965,72.628,89.739,71.915,88.87,71.915z"/>
	<path fill="#FFFFFF" d="M175.313,32.346c-5.57,0-8.117,4.76-8.117,9.178c0,6.059,3.186,9.978,8.117,9.978
		c4.595,0,8.198-4.153,8.198-9.463C183.511,36.326,180.141,32.346,175.313,32.346z"/>
	<path fill="#FFFFFF" d="M0,0.003v85.645h214.1V0.003H0z M17.87,76.826h-1.722V68.05h1.722V76.826z M26.934,74.356H22.87
		c0.1,0.814,0.688,1.297,1.58,1.297c0.77,0,1.426-0.307,1.911-0.579l0.143-0.077v1.468l-0.045,0.027
		c-0.596,0.326-1.254,0.483-2.069,0.483c-1.986,0-3.173-1.178-3.173-3.148c0-1.947,1.11-3.211,2.832-3.211
		c1.979,0,2.901,1.165,2.901,3.655v0.085H26.934z M16.156,61.018V9.972h18.368l0.053,0.101l17.781,34.01L52.131,9.972H65.47v51.045
		H47.562L29.117,26.681l0.454,34.336H16.156z M50.636,68.269l-1.746,1.857h-1.155l1.058-1.857H50.636z M38.127,76.826h-2.281v-8.181
		h2.281c3.126,0,4.707,1.376,4.707,4.087C42.834,75.452,41.247,76.826,38.127,76.826z M51.609,74.356h-4.063
		c0.099,0.814,0.687,1.297,1.58,1.297c0.769,0,1.426-0.307,1.91-0.579l0.142-0.077v1.468l-0.044,0.027
		c-0.597,0.326-1.255,0.483-2.069,0.483c-1.987,0-3.173-1.178-3.173-3.148c0-1.947,1.11-3.211,2.832-3.211
		c1.979,0,2.901,1.165,2.901,3.655v0.085H51.609z M58.287,76.963c-0.528,0-1.087-0.093-1.654-0.682v2.954h-1.722v-8.49h1.654v0.659
		c0.407-0.522,1.013-0.795,1.761-0.795c1.63,0,2.567,1.156,2.567,3.163C60.893,75.768,59.919,76.963,58.287,76.963z M67.804,76.826
		l-0.016-0.077c-0.038-0.202-0.053-0.437-0.061-0.636c-0.392,0.516-1.065,0.85-1.759,0.85c-1.042,0-2.152-0.65-2.152-1.847
		c0-0.829,0.354-1.418,1.055-1.765c0.491-0.24,1.134-0.354,2.026-0.354h0.748c-0.023-0.788-0.371-1.083-1.231-1.083
		c-0.599,0-1.24,0.23-1.761,0.618l-0.145,0.118l-0.052-1.567l0.061-0.023c0.596-0.276,1.42-0.451,2.083-0.451
		c1.851,0,2.638,0.771,2.638,2.575v0.756c0,0.581,0.008,1.028,0.021,1.473c0.008,0.424,0.031,0.821,0.068,1.313l0.008,0.101H67.804z
		 M76.535,72.452l-0.143-0.082c-0.112-0.069-0.377-0.113-0.642-0.113c-1.065,0-1.156,1.193-1.156,2.312v2.258h-1.722v-6.081h1.549
		v0.92c0.271-0.526,0.846-1.056,1.541-1.056c0.15,0,0.325,0,0.499,0.054l0.068,0.021v1.769H76.535z M83.204,76.818
		c-0.332,0.099-0.701,0.145-1.164,0.145c-1.223,0-1.955-0.747-1.955-2.002V72.05h-1.134v-1.312h1.134v-1.157l1.722-0.549v1.706h1.36
		v1.312h-1.36v2.653c0,0.597,0.197,0.878,0.627,0.878c0.265,0,0.506-0.055,0.648-0.145l0.137-0.09l0.052,1.448L83.204,76.818z
		 M91.679,74.356h-4.063c0.097,0.814,0.687,1.297,1.577,1.297c0.772,0,1.428-0.307,1.911-0.579l0.145-0.077v1.468l-0.045,0.027
		c-0.598,0.326-1.254,0.483-2.071,0.483c-1.985,0-3.171-1.178-3.171-3.148c0-1.947,1.11-3.211,2.832-3.211
		c1.979,0,2.901,1.165,2.901,3.655v0.085H91.679z M70.423,41.952c0-11.964,9.36-20.008,23.288-20.008
		c13.927,0,23.286,8.037,23.286,20.008c0,11.929-9.359,19.935-23.286,19.935C79.775,61.887,70.423,53.881,70.423,41.952z
		 M103.795,76.826h-1.722v-3.611c0-0.674-0.061-1.229-0.788-1.229c-0.693,0-1.05,0.635-1.05,1.889v2.952h-1.722v-3.611
		c0-0.674-0.061-1.229-0.785-1.229c-0.695,0-1.05,0.635-1.05,1.889v2.952h-1.722v-6.081h1.617v0.667
		c0.588-0.721,1.36-0.803,1.677-0.803c0.822,0,1.397,0.312,1.743,0.935c0.431-0.685,1.218-0.935,1.837-0.935
		c1.32,0,1.963,0.787,1.963,2.412V76.826z M112.79,74.356h-4.063c0.097,0.814,0.685,1.297,1.577,1.297
		c0.771,0,1.43-0.307,1.913-0.579l0.14-0.077v1.468l-0.042,0.027c-0.597,0.326-1.255,0.483-2.069,0.483
		c-1.99,0-3.173-1.178-3.173-3.148c0-1.947,1.112-3.211,2.831-3.211c1.979,0,2.901,1.165,2.901,3.655v0.085H112.79z M121.696,76.826
		h-1.723v-3.24c0-0.877-0.065-1.601-0.899-1.601c-1.161,0-1.255,1.426-1.255,1.865v2.976h-1.722v-6.081h1.64v0.651
		c0.452-0.529,1.064-0.787,1.866-0.787c1.329,0,2.1,0.877,2.1,2.412v3.805H121.696z M129.001,76.818
		c-0.336,0.099-0.702,0.145-1.157,0.145c-1.224,0-1.964-0.747-1.964-2.002V72.05h-1.134v-1.312h1.134v-1.157l1.722-0.549v1.706h1.36
		v1.312h-1.36v2.653c0,0.784,0.354,0.878,0.628,0.878c0.265,0,0.506-0.055,0.646-0.145l0.141-0.09l0.05,1.448L129.001,76.818z
		 M142.933,74.356h-4.061c0.098,0.814,0.686,1.297,1.578,1.297c0.768,0,1.43-0.307,1.913-0.579l0.141-0.077v1.468l-0.047,0.027
		c-0.593,0.326-1.255,0.483-2.065,0.483c-1.987,0-3.175-1.178-3.175-3.148c0-1.947,1.11-3.211,2.832-3.211
		c1.979,0,2.898,1.165,2.898,3.655v0.085H142.933z M147.747,76.963c-0.537,0-1.126-0.085-1.77-0.256l-0.077-0.023l0.108-1.48
		l0.129,0.058c0.511,0.258,0.989,0.378,1.465,0.378c0.09,0,0.916-0.016,0.916-0.626c0-0.398-0.375-0.527-0.967-0.702
		c-0.755-0.218-1.702-0.499-1.702-1.788c0-1.423,1.297-1.929,2.411-1.929c0.679,0,1.146,0.098,1.59,0.198l0.183,0.036l-0.12,1.358
		l-0.113-0.034c-0.483-0.167-0.807-0.25-1.344-0.25c-0.188,0-0.811,0.036-0.811,0.558c0,0.288,0.335,0.409,0.873,0.572
		c0.755,0.234,1.796,0.554,1.796,1.905C150.314,76.434,148.932,76.963,147.747,76.963z M150.466,33.705l-0.226-0.066
		c-1.496-0.433-3.007-0.433-4.601-0.433c-6.226,0-9.798,4.247-9.798,11.648V61.01h-14.096V22.82h12.88v6.669
		c2.657-5.143,6.389-7.539,11.699-7.539c1.729,0,3.499,0.25,4.687,0.44l0.163,0.027L150.466,33.705z M157.226,76.818
		c-0.332,0.099-0.705,0.145-1.165,0.145c-1.223,0-1.955-0.747-1.955-2.002V72.05h-1.13v-1.312h1.13v-1.157l1.722-0.549v1.706h1.359
		v1.312h-1.359v2.653c0,0.597,0.194,0.878,0.627,0.878c0.265,0,0.507-0.055,0.65-0.145l0.137-0.09l0.051,1.448L157.226,76.818z
		 M167.572,76.826h-1.722V68.05h1.722V76.826z M174.901,76.826l-0.018-0.077c-0.038-0.202-0.054-0.437-0.062-0.636
		c-0.389,0.516-1.063,0.85-1.76,0.85c-1.041,0-2.151-0.65-2.151-1.847c0-0.829,0.354-1.418,1.06-1.765
		c0.49-0.24,1.13-0.354,2.021-0.354h0.749c-0.023-0.788-0.371-1.083-1.231-1.083c-0.597,0-1.24,0.23-1.761,0.618l-0.145,0.118
		l-0.051-1.567l0.059-0.023c0.601-0.276,1.422-0.451,2.088-0.451c1.847,0,2.635,0.771,2.635,2.575v0.756
		c0,0.597,0.008,1.036,0.023,1.473c0.008,0.408,0.03,0.813,0.069,1.313l0.008,0.101H174.901z M171.779,68.269h1.844l1.06,1.857
		h-1.157L171.779,68.269z M195.369,74.711c-0.771,0-1.449-0.491-1.723-1.223h-11.512v-1.263h11.512
		c0.273-0.731,0.951-1.222,1.723-1.222c1.021,0,1.857,0.829,1.857,1.857C197.227,73.886,196.397,74.711,195.369,74.711z
		 M197.612,61.018h-13.031v-6.404c-2.06,4.242-7.678,7.273-13.607,7.273c-12.661,0-18.334-10.379-18.334-20.659
		c0-9.342,6.023-19.284,17.185-19.284c6.105,0,10.43,1.776,13.6,5.582V6.197h14.181v54.82H197.612z"/>
	<path fill="#FFFFFF" d="M24.132,71.915c-0.703,0-1.157,0.432-1.254,1.196h2.401C25.227,72.628,25.001,71.915,24.132,71.915z"/>
	<path fill="#FFFFFF" d="M93.703,31.469c-5.468,0-8.73,3.919-8.73,10.483c0,6.518,3.262,10.409,8.73,10.409
		c5.47,0,8.732-3.892,8.732-10.409C102.435,35.388,99.173,31.469,93.703,31.469z"/>
	<path fill="#FFFFFF" d="M48.8,71.915c-0.704,0-1.155,0.432-1.254,1.196h2.401C49.895,72.628,49.677,71.915,48.8,71.915z"/>
</g>
</svg>
